PathFileType	4	(X/Y/Z)	Patient4_TMGait_0pt3_03_left_01.trc.trc
DataRate	CameraRate	NumFrames	NumMarkers	Units	OrigDataRate	OrigDataStartFrame	OrigNumFrames
56.000000000000	56.000000000000	4	33	mm	56.000000000000	53	       141
Frame#	Time	Sacral			L.Shoulder			Chest			R.Shoulder			Neck			R.ASIS			L.ASIS			R.Thigh.Superior			R.Thigh.Lateral			R.Thigh.Inferior			R.Patella			L.Thigh.Superior			L.Thigh.Lateral			L.Thigh.Inferior			L.Patella			L.Shank.Superior			L.Shank.Lateral			L.Shank.Inferior			R.Shank.Superior			R.Shank.Lateral			R.Shank.Inferior			R.Heel			R.Midfoot.Superior			R.Midfoot.Lateral			R.Toe			L.Heel			L.Midfoot.Lateral			L.Midfoot.Superior			L.Toe			L.Elbow			L.Wrist			R.Elbow			R.Wrist			
		X1	Y1	Z1	X2	Y2	Z2	X3	Y3	Z3	X4	Y4	Z4	X5	Y5	Z5	X6	Y6	Z6	X7	Y7	Z7	X8	Y8	Z8	X9	Y9	Z9	X10	Y10	Z10	X11	Y11	Z11	X12	Y12	Z12	X13	Y13	Z13	X14	Y14	Z14	X15	Y15	Z15	X16	Y16	Z16	X17	Y17	Z17	X18	Y18	Z18	X19	Y19	Z19	X20	Y20	Z20	X21	Y21	Z21	X22	Y22	Z22	X23	Y23	Z23	X24	Y24	Z24	X25	Y25	Z25	X26	Y26	Z26	X27	Y27	Z27	X28	Y28	Z28	X29	Y29	Z29	X30	Y30	Z30	X31	Y31	Z31	X32	Y32	Z32	X33	Y33	Z33	

53	1.828571428571	756.971743658530	1004.313160511490	438.266777007660	935.473014234355	1424.949874300635	238.010237172009	1047.526478543296	1354.013654489931	391.922372865299	983.375035705731	1434.632520451402	569.402743560179	939.631570163098	1490.196440468824	392.769338541292	990.427672281781	936.809759266828	542.353839683198	963.629289351401	954.919197609049	269.931231649950	1038.262273690057	738.802414853630	516.941198616364	971.028100305913	628.042536925490	589.503659845042	1047.954697556052	571.522543176047	508.437254391735	1043.804888710022	461.361193045349	532.074599055299	1026.795377092197	751.135540208619	308.960160778774	949.645209712617	625.548801294000	255.652602819040	1040.298001147091	557.363132908336	322.129452958505	1045.277576310055	484.388791809766	332.582078832242	1012.004519052445	410.519043501423	327.901532136692	916.902654208264	301.183986175489	276.286099892953	954.754745576520	188.642878856560	351.724086216559	963.370703180783	396.685022103496	544.411253395127	845.075081198972	364.910659698967	614.431713548210	820.705170053128	256.615265855758	566.671762595671	613.494091186627	208.364104159677	557.449200513249	780.703152148777	136.759060699092	582.524595798541	674.718772667080	143.476863817434	623.655478522487	839.160742229256	30.330843847982	597.539983565921	815.475522699342	39.023657451492	390.117639242774	892.206871929328	36.079802621601	312.133545060164	975.375463653076	95.836781120900	342.412444290632	1104.241781256021	41.763787134519	317.597043813323	916.836690394411	1073.875320280325	116.571175049093	984.680031430328	821.908086424541	130.130610103213	1058.032906642470	1090.569684428763	683.008917968254	1262.911265422293	937.178596377572	648.220418111738	
54	1.846428571429	755.489930033076	1001.769414389980	433.809667406164	936.723153440468	1423.816188199519	236.468375767944	1046.456186846847	1352.350416172360	391.742304994821	979.630055673066	1431.852207376986	568.751075642424	939.394891484801	1488.465835596502	391.469290488779	988.642017896060	935.870944661133	540.133904948363	964.157633988258	953.210825506893	267.447295195659	1042.189116710237	740.670690793843	513.707469667441	978.824030743593	628.447688542817	586.537176714801	1057.134848313065	573.763998126277	504.925934352802	1055.211143189407	462.513130601779	529.040810705109	1028.253163606324	749.758626091190	307.450679488833	952.061320810644	623.540587475105	254.542450305585	1042.580575689721	555.861142800108	321.970704351200	1047.700013415960	482.445392738710	332.687721151330	1012.992994165539	408.353271894115	328.099294424911	916.466635659104	300.433243568257	276.232131577841	951.665572617804	187.525650706993	352.046829403871	973.479336115115	397.968213820111	541.612364915668	853.602162123341	369.338658672864	610.645185929372	827.673598120844	260.939568884886	564.026813905916	619.916385862071	218.053161168375	552.613850859951	785.006668948198	141.776184368870	581.045256185515	678.325518138270	152.025709856552	620.481964400927	839.975403022815	31.016056149304	598.518705717517	810.211444684072	39.165326417680	390.069424492465	886.956305421885	36.150439102228	312.154791255775	970.238581844902	95.723151289832	342.581888373704	1099.029008562620	41.352595472040	317.556826465907	927.558787288643	1072.642995524935	113.657829256193	1003.931560301366	823.270338595294	128.159051392305	1042.688476353039	1084.455994805710	681.989462228289	1235.764579992661	914.987011151955	654.652394671063	
55	1.864285714286	753.955043039641	999.244759558386	429.493704541977	938.134119969830	1422.630248080579	235.158156898664	1045.407344361960	1350.585528734436	391.824399491914	975.791260072076	1428.982195325490	568.288117843704	939.253765108538	1486.693772893314	390.409635240363	986.726013963115	934.926417898633	538.205379475987	964.683918883448	951.393232560395	265.259806325234	1045.684904940848	742.665328335440	510.790829818820	986.170449112437	629.126767638909	583.914160057760	1065.714577456971	576.314547702248	501.709774865130	1066.131387126546	464.133883337609	526.253551856652	1029.629292491953	748.313368341283	306.173193080661	954.328781852401	621.503875259344	253.619759050434	1044.717229605295	554.301501080691	321.993844409252	1049.969041882318	480.469146256486	332.969014161860	1013.838389315382	406.182567454007	328.408625871714	915.893325940947	299.693223835635	276.268657080002	948.537842426315	186.428437690229	352.378074772451	983.411729523586	399.487700925725	539.068710539041	862.079013695579	373.326683746574	606.942881510963	835.238593058624	264.689235828614	561.427179653998	627.140759971417	225.254565044436	547.526069032298	790.739030538812	146.349545609703	579.575673663256	683.348764139420	158.978718022463	617.217925951725	843.361246972193	32.263740232131	599.765346173339	804.947396196520	39.319570867804	390.015891012426	881.711795721797	36.220125247513	312.173570577992	965.103888798029	95.608007124163	342.743084176957	1093.811220282165	40.972655205766	317.507621554932	937.914455754094	1071.688738864883	111.001700460969	1023.534945568541	825.462154656492	126.791027661280	1026.884049075230	1078.657606408134	680.843051101342	1206.483914366058	893.905591053363	660.797720149666	
56	1.882142857143	752.412740159801	996.885986283575	425.329212920718	939.748880339922	1421.489482567052	234.085947715061	1044.424947923753	1348.825728247975	392.170716570266	971.926065450343	1426.166305147993	568.002784694829	939.236203876086	1484.992771409395	389.589686903103	984.682491081661	934.060309622853	536.584042772725	965.224241160755	949.583785169511	263.385528177596	1048.658192664973	744.798685110047	508.272462314422	992.871619020454	630.105112422431	581.674821092455	1073.526001585531	579.162228971622	498.891519108506	1076.374259643242	466.252433458328	523.822515767246	1030.813009770622	746.839772542799	305.114286594296	956.252169762846	619.535671491150	252.850265664419	1046.462678307554	552.727619149108	322.155944708267	1051.800178514886	478.527099633999	333.385772010493	1014.314286663370	404.092400257176	328.785288564964	915.018769230112	298.988904628466	276.361024097026	945.288045104442	185.392629518270	352.693815570976	993.051254849444	401.232586839868	536.875629616517	870.443179757322	376.670039631509	603.461858537465	843.472496050090	267.635793741994	558.983597507486	635.258152921220	229.455639769383	542.418932436103	798.125704220688	150.160418679978	578.198088385251	690.011444586646	163.848016488340	614.024901926988	849.744522432305	33.965755537787	601.255440811746	799.675590544993	39.478397501704	389.956555557749	876.466520536454	36.284552690836	312.185728175662	959.959827896329	95.494508699856	342.886164304981	1088.581571629939	40.635513572309	317.450964913315	947.865892292419	1071.076546094499	108.595513949413	1043.338313776946	828.594478590138	126.005640436969	1010.668319105161	1073.378398813890	679.638498387499	1175.315493045087	874.420419162057	666.534958508448	
